<svg width="0" height="0" class="hidden">
    <symbol xmlns="http://www.w3.org/2000/svg" fill="none" viewBox="0 0 24 24" id="chevron-down">
        <path stroke-linecap="round"  stroke-width="2.5" stroke-linejoin="round" d="m19.5 8.25-7.5 7.5-7.5-7.5" stroke="currentColor" />
    </symbol>
    <symbol xmlns="http://www.w3.org/2000/svg" viewBox="0 -960 960 960" id="restaurant-menu">
        <path d="m175-120-56-56 410-410q-18-42-5-95t57-95q53-53 118-62t106 32q41 41 32 106t-62 118q-42 44-95 57t-95-5l-50 50 304 304-56 56-304-302-304 302Zm118-342L173-582q-54-54-54-129t54-129l248 250-128 128Z"/>
    </symbol>
    <symbol xmlns="http://www.w3.org/2000/svg" viewBox="0 -960 960 960" id="location-city">
        <path d="M120-120v-560h240v-80l120-120 120 120v240h240v400H120Zm80-80h80v-80h-80v80Zm0-160h80v-80h-80v80Zm0-160h80v-80h-80v80Zm240 320h80v-80h-80v80Zm0-160h80v-80h-80v80Zm0-160h80v-80h-80v80Zm0-160h80v-80h-80v80Zm240 480h80v-80h-80v80Zm0-160h80v-80h-80v80Z" />
    </symbol>
    <symbol xmlns="http://www.w3.org/2000/svg" viewBox="0 -960 960 960" id="calendar-month">
        <path d="M200-80q-33 0-56.5-23.5T120-160v-560q0-33 23.5-56.5T200-800h40v-80h80v80h320v-80h80v80h40q33 0 56.5 23.5T840-720v560q0 33-23.5 56.5T760-80H200Zm0-80h560v-400H200v400Zm0-480h560v-80H200v80Zm0 0v-80 80Zm280 240q-17 0-28.5-11.5T440-440q0-17 11.5-28.5T480-480q17 0 28.5 11.5T520-440q0 17-11.5 28.5T480-400Zm-160 0q-17 0-28.5-11.5T280-440q0-17 11.5-28.5T320-480q17 0 28.5 11.5T360-440q0 17-11.5 28.5T320-400Zm320 0q-17 0-28.5-11.5T600-440q0-17 11.5-28.5T640-480q17 0 28.5 11.5T680-440q0 17-11.5 28.5T640-400ZM480-240q-17 0-28.5-11.5T440-280q0-17 11.5-28.5T480-320q17 0 28.5 11.5T520-280q0 17-11.5 28.5T480-240Zm-160 0q-17 0-28.5-11.5T280-280q0-17 11.5-28.5T320-320q17 0 28.5 11.5T360-280q0 17-11.5 28.5T320-240Zm320 0q-17 0-28.5-11.5T600-280q0-17 11.5-28.5T640-320q17 0 28.5 11.5T680-280q0 17-11.5 28.5T640-240Z" />
    </symbol>
    <symbol xmlns="http://www.w3.org/2000/svg" viewBox="0 -960 960 960" id="travel-explore">
        <path d="M480-80q-83 0-156-31.5T197-197q-54-54-85.5-127T80-480q0-83 31.5-156T197-763q54-54 127-85.5T480-880q146 0 255.5 91.5T872-559h-82q-19-73-68.5-130.5T600-776v16q0 33-23.5 56.5T520-680h-80v80q0 17-11.5 28.5T400-560h-80v80h80v120h-40L168-552q-3 18-5.5 36t-2.5 36q0 131 92 225t228 95v80Zm364-20L716-228q-21 12-45 20t-51 8q-75 0-127.5-52.5T440-380q0-75 52.5-127.5T620-560q75 0 127.5 52.5T800-380q0 27-8 51t-20 45l128 128-56 56ZM620-280q42 0 71-29t29-71q0-42-29-71t-71-29q-42 0-71 29t-29 71q0 42 29 71t71 29Z" />
    </symbol>
    <symbol xmlns="http://www.w3.org/2000/svg" viewBox="0 -960 960 960" id="app-shortcut"> 
        <path d="M280-40q-33 0-56.5-23.5T200-120v-720q0-33 23.5-56.5T280-920h400q33 0 56.5 23.5T760-840v160h-80v-40H280v480h400v-40h80v160q0 33-23.5 56.5T680-40H280Zm0-120v40h400v-40H280Zm0-640h400v-40H280v40Zm0 0v-40 40Zm0 640v40-40Zm406-280H480v120h-80v-120q0-33 23.5-56.5T480-520h206l-62-64 56-56 160 160-160 160-56-56 62-64Z" />
    </symbol>
    <symbol xmlns="http://www.w3.org/2000/svg" viewBox="0 -960 960 960" id="widget">
        <path d="M666-440 440-666l226-226 226 226-226 226Zm-546-80v-320h320v320H120Zm400 400v-320h320v320H520Zm-400 0v-320h320v320H120Zm80-480h160v-160H200v160Zm467 48 113-113-113-113-113 113 113 113Zm-67 352h160v-160H600v160Zm-400 0h160v-160H200v160Zm160-400Zm194-65ZM360-360Zm240 0Z"/>
    </symbol>
    <symbol xmlns="http://www.w3.org/2000/svg" viewBox="0 -960 960 960" id="search">
        <path d="M784-120 532-372q-30 24-69 38t-83 14q-109 0-184.5-75.5T120-580q0-109 75.5-184.5T380-840q109 0 184.5 75.5T640-580q0 44-14 83t-38 69l252 252-56 56ZM380-400q75 0 127.5-52.5T560-580q0-75-52.5-127.5T380-760q-75 0-127.5 52.5T200-580q0 75 52.5 127.5T380-400Z"/>
    </symbol>
</svg>